<svg width="129" height="46" viewBox="0 0 129 46" fill="none" xmlns="http://www.w3.org/2000/svg">
<path d="M33.72 24.9L38.94 25.14C40.22 25.14 41.5 24.92 42.78 24.48C44.1 24 45.16 23.28 45.96 22.32C46.36 22.32 46.72 22.44 47.04 22.68C47.4 22.88 47.58 23.32 47.58 24C47.58 24.64 47.36 25.14 46.92 25.5C46.48 25.86 45.98 26.14 45.42 26.34C44.86 26.5 44.3 26.66 43.74 26.82C43.22 26.94 42.84 27.24 42.6 27.72C42.4 28.16 42.26 28.66 42.18 29.22C42.14 29.74 42.1 30.28 42.06 30.84C42.02 31.4 42 31.94 42 32.46C42 32.98 41.94 33.44 41.82 33.84C40.1 41.8 34.24 45.78 24.24 45.78C19.12 45.74 14.76 43.88 11.16 40.2C7.4 36.36 4.92 30.92 3.72 23.88H0.48C0.2 23.88 0.06 23.54 0.06 22.86L0.12 22.26C0.24 22.22 0.44 22.14 0.72 22.02L1.68 21.66C2.6 21.34 3.12 21.16 3.24 21.12C3.36 21.04 3.5 20.64 3.66 19.92C3.86 19.2 4.06 18.38 4.26 17.46C4.74 15.34 5.12 13.78 5.4 12.78C6.76 9.06 8.98 6.08 12.06 3.84C15.14 1.6 18.58 0.479998 22.38 0.479998C23.54 0.479998 25.04 0.699998 26.88 1.14C28.72 1.54 30.12 1.84 31.08 2.04C32.08 2.24 33.04 2.34 33.96 2.34C34.92 2.34 35.62 2.24 36.06 2.04C36.54 1.84 36.92 1.64 37.2 1.44L38.1 0.779998C38.38 0.579998 38.66 0.479998 38.94 0.479998C39.22 0.479998 39.44 0.559998 39.6 0.719999L40.62 1.74V10.38C40.62 10.82 40.42 11.14 40.02 11.34C39.62 11.54 39.26 11.64 38.94 11.64C37.54 11 36.2 10.2 34.92 9.24L31.08 6.54C29.76 5.66 28.42 4.92 27.06 4.32C25.7 3.68 24.22 3.36 22.62 3.36L21.78 3.42C20.98 10.22 20.58 15.34 20.58 18.78C20.58 24.94 20.98 30.1 21.78 34.26C21.82 34.46 21.9 34.98 22.02 35.82C22.14 36.66 22.28 37.56 22.44 38.52C22.8 41.04 23 42.32 23.04 42.36C23.32 42.8 23.66 43.06 24.06 43.14C24.46 43.22 24.8 43.26 25.08 43.26C25.36 43.26 25.76 43.18 26.28 43.02C26.84 42.9 27.46 42.74 28.14 42.54C29.78 42.06 31.08 41.62 32.04 41.22C33.04 40.54 33.9 39.7 34.62 38.7C35.34 37.7 35.7 36.72 35.7 35.76C35.7 34.8 35.6 34.02 35.4 33.42C35.2 32.78 34.92 32.18 34.56 31.62C34.24 31.06 33.86 30.5 33.42 29.94C32.98 29.38 32.52 28.76 32.04 28.08C31.56 28.08 30.82 28.36 29.82 28.92C28.82 29.48 28.18 29.76 27.9 29.76C27.62 29.76 27.26 29.56 26.82 29.16C26.42 28.76 26.22 28.3 26.22 27.78C26.22 27.26 26.52 26.8 27.12 26.4C27.72 26 28.42 25.68 29.22 25.44C30.5 25.08 31.86 24.9 33.3 24.9C33.42 24.9 33.56 24.9 33.72 24.9ZM51.4964 45.24C50.5764 45.24 50.1164 44.66 50.1164 43.5C50.1164 42.26 51.0764 41.28 52.9964 40.56C53.8364 40.24 55.2564 39.92 57.2564 39.6L57.6164 39.24V24.3C57.6164 23.9 57.4764 23.64 57.1964 23.52C56.9164 23.4 56.6164 23.3 56.2964 23.22C55.9764 23.1 55.6764 22.96 55.3964 22.8C55.1164 22.6 54.9764 22.26 54.9764 21.78C54.9764 20.58 55.7364 19.94 57.2564 19.86C57.2564 16.1 56.8764 11.48 56.1164 6C55.2764 6 54.5364 6.38 53.8964 7.14C53.2564 7.86 52.6564 8.68 52.0964 9.6C51.5764 10.48 51.0564 11.3 50.5364 12.06C50.0564 12.78 49.5764 13.14 49.0964 13.14C48.6164 13.14 48.2164 12.96 47.8964 12.6C47.6164 12.24 47.4764 11.94 47.4764 11.7V11.16C47.4764 11 47.4964 10.88 47.5364 10.8C48.6964 7.84 50.7564 5.48 53.7164 3.72C56.5164 2.04 59.5164 1.2 62.7164 1.2C62.8364 1.16 62.9764 1.14 63.1364 1.14C66.1364 1.14 68.7364 1.36 70.9364 1.8C73.2564 2.28 75.2164 2.88 76.8164 3.6C78.4564 4.32 79.7964 5.12 80.8364 6C81.8764 6.88 82.6764 7.76 83.2364 8.64C84.2764 10.16 84.7964 11.58 84.7964 12.9C84.7964 13.18 84.7764 13.36 84.7364 13.44C84.8564 13.56 84.9164 14.24 84.9164 15.48C84.9164 16.72 84.6364 17.82 84.0764 18.78C83.5564 19.74 82.6764 20.74 81.4364 21.78C83.6364 22.62 85.2964 23.78 86.4164 25.26C87.5764 26.7 88.1564 28.54 88.1564 30.78C88.1564 33.02 87.8164 34.88 87.1364 36.36C86.4564 37.8 85.5964 39.02 84.5564 40.02C83.5564 40.98 82.4364 41.72 81.1964 42.24C79.9564 42.8 78.7764 43.22 77.6564 43.5C76.0564 43.9 74.4364 44.1 72.7964 44.1C71.1564 44.1 69.4764 43.96 67.7564 43.68C66.0364 43.4 64.2764 43.26 62.4764 43.26H59.8364C59.6764 43.58 59.5164 43.8 59.3564 43.92C59.2364 44.04 58.9764 44.1 58.5764 44.1C58.2164 44.1 57.8964 43.96 57.6164 43.68C57.3764 43.4 56.9964 43.26 56.4764 43.26C55.9964 43.26 55.5564 43.36 55.1564 43.56L53.8964 44.28C52.8964 44.92 52.0964 45.24 51.4964 45.24ZM70.5764 40.62C70.5764 40.98 71.1164 41.16 72.1964 41.16C73.3164 41.16 74.6564 41.02 76.2164 40.74C77.7764 40.42 79.2364 39.9 80.5964 39.18C83.8764 37.46 85.5164 35.12 85.5164 32.16C85.5164 29.2 85.1164 27.22 84.3164 26.22C83.8364 25.62 83.1964 25.14 82.3964 24.78C81.5964 24.42 80.5164 24.02 79.1564 23.58H78.0164C77.7364 23.62 77.2164 23.7 76.4564 23.82C75.7364 23.94 74.9764 24.06 74.1764 24.18L71.7764 24.48C71.0564 24.6 70.5564 24.68 70.2764 24.72C70.0364 24.76 69.9164 24.94 69.9164 25.26V25.5C69.9164 29.42 70.1564 34.36 70.6364 40.32C70.5964 40.36 70.5764 40.4 70.5764 40.44V40.62ZM69.9764 21.48L72.4964 21.36C72.8564 21.36 73.3564 21.32 73.9964 21.24C75.3564 21.12 76.4764 20.96 77.3564 20.76L78.0164 20.64C79.4564 19.76 80.4564 18.7 81.0164 17.46C81.6164 16.22 81.9164 15.16 81.9164 14.28C81.9164 11.04 80.2764 8.5 76.9964 6.66C75.7164 5.94 74.4364 5.46 73.1564 5.22C71.9164 4.94 71.1164 4.8 70.7564 4.8C70.4364 4.8 70.2764 4.82 70.2764 4.86H69.0764C69.0764 6.5 69.1764 8.62 69.3764 11.22C69.7764 16.42 69.9764 19.84 69.9764 21.48ZM112.825 43.08C102.905 43.36 97.3053 43.5 96.0253 43.5C94.7453 43.5 93.7453 43.46 93.0253 43.38C92.3053 43.3 91.9453 42.9 91.9453 42.18C91.9453 40.82 93.1853 40.14 95.6653 40.14C96.4253 40.14 96.8653 39.94 96.9853 39.54C97.1453 39.1 97.2253 38.5 97.2253 37.74L96.8053 31.56L97.1653 24.84H96.3853C95.5053 24.84 94.8453 24.7 94.4053 24.42C94.0053 24.1 93.8053 23.74 93.8053 23.34C93.8053 22.34 94.9253 21.84 97.1653 21.84C97.4853 20.56 97.6453 18.9 97.6453 16.86V12.72L97.5853 8.28V6.66L97.1653 5.16L90.8653 4.38C90.4653 4.3 90.2253 4.1 90.1453 3.78C90.1053 3.46 90.0853 3.16 90.0853 2.88C90.0853 2.56 90.1053 2.28 90.1453 2.04C90.2253 1.76 90.4653 1.54 90.8653 1.38C92.9053 1.38 95.2253 1.56 97.8253 1.92C102.705 2.6 105.705 2.94 106.825 2.94H109.765L110.965 2.88L122.845 0.659999H128.425L128.785 1.38L128.965 6.84C128.965 7.84 128.825 8.76 128.545 9.6C128.265 10.4 127.645 10.8 126.685 10.8H126.145C126.025 10.8 125.925 10.78 125.845 10.74L120.205 4.74H119.545C116.625 4.74 114.165 4.94 112.165 5.34C110.165 5.74 109.145 6.04 109.105 6.24C108.985 7.32 108.905 8.28 108.865 9.12L108.745 11.52C108.705 12.24 108.685 13 108.685 13.8V20.34C109.245 20.86 109.965 21.12 110.845 21.12H110.965C111.885 21.12 112.545 21.04 112.945 20.88C114.025 20.64 114.725 20.46 115.045 20.34C115.405 20.18 115.625 19.9 115.705 19.5L116.065 18.24C116.145 17.84 116.245 17.48 116.365 17.16C116.525 16.8 116.825 16.62 117.265 16.62C118.265 16.62 118.765 17.5 118.765 19.26C118.765 20.62 118.605 21.98 118.285 23.34C118.005 24.7 117.705 25.72 117.385 26.4C117.065 27.08 116.665 27.42 116.185 27.42L115.585 27.18C115.225 27.02 115.045 26.88 115.045 26.76V23.34H109.105L108.685 24.12V27.9C108.685 32.98 108.825 37.06 109.105 40.14C109.145 40.38 109.365 40.5 109.765 40.5L114.145 40.14C115.265 40.14 115.825 40.58 115.825 41.46C115.825 42.54 114.825 43.08 112.825 43.08Z" fill="#E6E6E6"/>
</svg>
